<svg width="337" height="340" viewBox="0 0 337 340" fill="none" xmlns="http://www.w3.org/2000/svg">
<path fill-rule="evenodd" clip-rule="evenodd" d="M271.563 282.234C274.217 281.473 275.752 278.704 274.991 276.05C274.23 273.395 271.461 271.861 268.806 272.622C266.152 273.383 264.617 276.152 265.378 278.806C266.139 281.461 268.908 282.996 271.563 282.234Z" fill="#22A45D"/>
<path fill-rule="evenodd" clip-rule="evenodd" d="M77.5292 234.216C80.1836 233.455 81.7184 230.686 80.9573 228.032C80.1961 225.378 77.4273 223.843 74.7728 224.604C72.1183 225.365 70.5835 228.134 71.3447 230.788C72.1058 233.443 74.8747 234.978 77.5292 234.216Z" fill="#22A45D"/>
<path fill-rule="evenodd" clip-rule="evenodd" d="M33.8926 136.457C36.5471 135.696 38.0819 132.927 37.3208 130.273C36.5596 127.618 33.7907 126.084 31.1363 126.845C28.4818 127.606 26.947 130.375 27.7081 133.029C28.4693 135.684 31.2382 137.218 33.8926 136.457Z" fill="#22A45D"/>
<path fill-rule="evenodd" clip-rule="evenodd" d="M224.577 21.4421C227.231 20.681 228.766 17.9121 228.005 15.2576C227.244 12.6032 224.475 11.0684 221.821 11.8295C219.166 12.5907 217.631 15.3596 218.392 18.014C219.154 20.6685 221.923 22.2033 224.577 21.4421Z" fill="#22A45D"/>
<path fill-rule="evenodd" clip-rule="evenodd" d="M30.7622 94.7027L38.8021 99.1592L34.3455 107.199L26.3057 102.743L30.7622 94.7027Z" fill="#FFD841"/>
<path fill-rule="evenodd" clip-rule="evenodd" d="M261.734 22.2309L269.774 26.6874L265.317 34.7273L257.277 30.2707L261.734 22.2309Z" fill="#FFD841"/>
<path fill-rule="evenodd" clip-rule="evenodd" d="M267.272 212.058L275.312 216.515L270.855 224.554L262.815 220.098L267.272 212.058Z" fill="#FFD841"/>
<path fill-rule="evenodd" clip-rule="evenodd" d="M98.9027 248.894L106.943 253.35L102.486 261.39L94.4462 256.934L98.9027 248.894Z" fill="#FFD841"/>
<path fill-rule="evenodd" clip-rule="evenodd" d="M131.146 166.19C130.453 166.59 130.16 167.683 130.56 168.375L135.26 176.516C135.86 177.555 135.394 178.748 134.528 179.248C133.662 179.748 132.296 179.382 131.796 178.516L127.096 170.375C126.423 169.609 125.603 169.39 124.737 169.89L124.564 169.99C123.871 170.39 123.579 171.483 123.979 172.175L128.679 180.316C129.279 181.355 128.813 182.548 127.947 183.048C127.081 183.548 125.715 183.182 125.215 182.316L120.515 174.175C120.115 173.483 119.022 173.19 118.329 173.59C117.636 173.99 117.343 175.083 117.743 175.775L122.543 184.089C124.443 187.38 128.322 189.298 131.966 188.81C134.027 194.78 141.509 214.939 148.513 216.67C149.879 217.036 152.996 215.236 153.362 213.87C155.366 206.939 141.648 190.38 137.509 185.61C139.853 182.871 140.232 178.727 138.332 175.436L133.332 166.775C132.832 165.909 131.839 165.79 131.146 166.19Z" fill="#DCDCDC"/>
<path fill-rule="evenodd" clip-rule="evenodd" d="M135.881 198.79C139.215 206.565 143.868 215.425 148.513 216.669C149.879 217.036 152.996 215.236 153.362 213.869C154.607 209.225 149.26 200.765 144.194 193.99L135.881 198.79V198.79Z" fill="#22A45D"/>
<path fill-rule="evenodd" clip-rule="evenodd" d="M190.687 128.118C186.357 130.618 186.493 138.854 188.893 143.011L189.793 144.57C191.693 147.861 195.472 149.605 199.189 148.844C200.923 153.848 208.686 175.693 216.063 177.669C217.429 178.036 220.546 176.236 220.912 174.869C222.889 167.493 207.852 149.848 204.386 145.844C206.73 143.105 207.282 138.861 205.382 135.57L204.482 134.011C202.082 129.854 195.018 125.618 190.687 128.118Z" fill="#DCDCDC"/>
<path fill-rule="evenodd" clip-rule="evenodd" d="M203.431 159.79C206.765 167.565 211.418 176.425 216.063 177.669C217.429 178.036 220.546 176.236 220.912 174.869C222.157 170.225 216.81 161.765 211.744 154.99L203.431 159.79V159.79Z" fill="#22A45D"/>
<path d="M185.013 196.289C198.405 188.557 202.993 171.433 195.261 158.04C187.529 144.648 170.405 140.06 157.013 147.792C143.62 155.524 139.032 172.648 146.764 186.04C154.496 199.433 171.62 204.021 185.013 196.289Z" fill="#FFD600"/>
<path d="M181.512 190.227C191.557 184.428 194.998 171.585 189.199 161.54C183.4 151.496 170.557 148.055 160.512 153.854C150.468 159.653 147.027 172.496 152.826 182.54C158.625 192.585 171.468 196.026 181.512 190.227Z" fill="white"/>
<path d="M217.687 174.884C218.548 174.387 218.53 172.743 217.646 171.213C216.763 169.682 215.348 168.844 214.487 169.341C213.627 169.838 213.645 171.482 214.529 173.013C215.412 174.543 216.827 175.381 217.687 174.884Z" fill="white"/>
<path d="M150.138 213.884C150.998 213.387 150.98 211.743 150.096 210.213C149.213 208.682 147.798 207.844 146.938 208.341C146.077 208.838 146.095 210.482 146.979 212.013C147.862 213.543 149.277 214.381 150.138 213.884Z" fill="white"/>
<path fill-rule="evenodd" clip-rule="evenodd" d="M149.5 339.321C232.067 339.321 299 272.387 299 189.821C299 107.254 232.067 40.3209 149.5 40.3209C66.9334 40.3209 0 107.254 0 189.821C0 272.387 66.9334 339.321 149.5 339.321Z" fill="#DDF1E6"/>
<mask id="mask0_104_43" style="mask-type:alpha" maskUnits="userSpaceOnUse" x="0" y="40" width="299" height="300">
<path fill-rule="evenodd" clip-rule="evenodd" d="M149.5 339.321C232.067 339.321 299 272.387 299 189.821C299 107.254 232.067 40.3209 149.5 40.3209C66.9334 40.3209 0 107.254 0 189.821C0 272.387 66.9334 339.321 149.5 339.321Z" fill="white"/>
</mask>
<g mask="url(#mask0_104_43)">
<path fill-rule="evenodd" clip-rule="evenodd" d="M197.866 6.40251C331.64 79.6127 228.192 127.351 311.045 200.431C357.736 241.614 288.737 320.775 207.406 319.248C178.435 318.705 148.618 264.524 120.906 255.248C88.3657 244.356 59.0145 272.8 42.2263 234.616C-28.9946 72.6263 113.647 127.732 120.953 55.8755C128.26 -15.9809 179.094 -3.16421 197.866 6.40251Z" fill="#FBFBFB"/>
<path fill-rule="evenodd" clip-rule="evenodd" d="M271.563 281.991C274.217 281.23 275.752 278.461 274.991 275.806C274.23 273.152 271.461 271.617 268.806 272.378C266.152 273.139 264.617 275.908 265.378 278.563C266.139 281.217 268.908 282.752 271.563 281.991Z" fill="#22A45D"/>
<path fill-rule="evenodd" clip-rule="evenodd" d="M75.542 234.217C78.1964 233.455 79.7313 230.687 78.9701 228.032C78.209 225.378 75.4401 223.843 72.7856 224.604C70.1312 225.365 68.5963 228.134 69.3575 230.788C70.1186 233.443 72.8875 234.978 75.542 234.217Z" fill="#22A45D"/>
<path fill-rule="evenodd" clip-rule="evenodd" d="M31.9055 136.457C34.5599 135.696 36.0947 132.927 35.3336 130.273C34.5724 127.618 31.8035 126.084 29.1491 126.845C26.4946 127.606 24.9598 130.375 25.721 133.029C26.4821 135.684 29.251 137.218 31.9055 136.457Z" fill="#22A45D"/>
<path fill-rule="evenodd" clip-rule="evenodd" d="M265.285 212.058L273.324 216.515L268.868 224.554L260.828 220.098L265.285 212.058Z" fill="#FFD841"/>
<path fill-rule="evenodd" clip-rule="evenodd" d="M96.9156 248.894L104.955 253.35L100.499 261.39L92.459 256.934L96.9156 248.894Z" fill="#FFD841"/>
<path fill-rule="evenodd" clip-rule="evenodd" d="M28.7751 94.7027L36.8149 99.1593L32.3583 107.199L24.3185 102.743L28.7751 94.7027Z" fill="#FFD841"/>
<path fill-rule="evenodd" clip-rule="evenodd" d="M129.159 166.19C128.466 166.59 128.173 167.683 128.573 168.375L133.273 176.516C133.873 177.555 133.407 178.748 132.541 179.248C131.675 179.748 130.309 179.382 129.809 178.516L125.109 170.375C124.436 169.609 123.616 169.39 122.75 169.89L122.577 169.99C121.884 170.39 121.591 171.483 121.991 172.175L126.691 180.316C127.291 181.355 126.825 182.548 125.959 183.048C125.093 183.548 123.727 183.182 123.227 182.316L118.527 174.175C118.127 173.483 117.035 173.19 116.342 173.59C115.649 173.99 115.356 175.083 115.756 175.775L120.556 184.089C122.456 187.38 126.335 189.298 129.979 188.81C132.04 194.78 139.522 214.939 146.525 216.67C147.891 217.036 151.009 215.236 151.375 213.87C153.378 206.939 139.661 190.38 135.522 185.61C137.866 182.871 138.245 178.727 136.345 175.436L131.345 166.775C130.845 165.909 129.852 165.79 129.159 166.19Z" fill="#DCDCDC"/>
<path fill-rule="evenodd" clip-rule="evenodd" d="M133.893 198.79C137.227 206.565 141.881 215.425 146.525 216.67C147.891 217.036 151.009 215.236 151.375 213.87C152.62 209.225 147.273 200.765 142.207 193.99L133.893 198.79V198.79Z" fill="#22A45D"/>
<path fill-rule="evenodd" clip-rule="evenodd" d="M188.7 128.119C184.37 130.619 184.506 138.854 186.906 143.011L187.806 144.57C189.706 147.861 193.485 149.605 197.202 148.844C198.936 153.848 206.699 175.693 214.075 177.67C215.441 178.036 218.559 176.236 218.925 174.87C220.902 167.493 205.864 149.848 202.398 145.844C204.743 143.105 205.295 138.861 203.395 135.57L202.495 134.011C200.095 129.854 193.03 125.619 188.7 128.119Z" fill="#DCDCDC"/>
<path fill-rule="evenodd" clip-rule="evenodd" d="M201.443 159.79C204.777 167.565 209.431 176.425 214.075 177.67C215.441 178.036 218.559 176.236 218.925 174.87C220.17 170.225 214.823 161.765 209.757 154.99L201.443 159.79V159.79Z" fill="#22A45D"/>
<path d="M183.025 196.289C196.418 188.557 201.006 171.433 193.274 158.04C185.542 144.648 168.418 140.06 155.025 147.792C141.633 155.524 137.045 172.648 144.777 186.04C152.509 199.433 169.633 204.021 183.025 196.289Z" fill="#FFD600"/>
<path d="M179.525 190.227C189.569 184.428 193.011 171.585 187.212 161.54C181.413 151.496 168.569 148.055 158.525 153.854C148.481 159.653 145.04 172.496 150.839 182.54C156.638 192.585 169.481 196.026 179.525 190.227Z" fill="white"/>
<path d="M215.7 174.884C216.561 174.387 216.543 172.743 215.659 171.213C214.776 169.682 213.361 168.844 212.5 169.341C211.639 169.838 211.658 171.482 212.541 173.013C213.425 174.543 214.839 175.381 215.7 174.884Z" fill="white"/>
<path d="M148.15 213.884C149.011 213.387 148.993 211.743 148.109 210.213C147.226 208.682 145.811 207.844 144.95 208.341C144.089 208.838 144.108 210.482 144.991 212.013C145.875 213.543 147.289 214.381 148.15 213.884Z" fill="white"/>
</g>
</svg>
