<?xml version="1.0" standalone="no"?>
<!DOCTYPE svg PUBLIC "-//W3C//DTD SVG 20010904//EN"
 "http://www.w3.org/TR/2001/REC-SVG-20010904/DTD/svg10.dtd">
<svg version="1.0" xmlns="http://www.w3.org/2000/svg"
 width="512.000000pt" height="512.000000pt" viewBox="0 0 512.000000 512.000000"
 preserveAspectRatio="xMidYMid meet">

<g transform="translate(0.000000,512.000000) scale(0.100000,-0.100000)"
fill="#000000" stroke="none">
<path d="M2455 4791 c-56 -13 -137 -44 -188 -74 -62 -37 -149 -125 -186 -191
-35 -61 -63 -86 -97 -86 -12 0 -52 25 -90 57 -187 153 -412 184 -619 84 -344
-167 -421 -626 -148 -896 101 -100 251 -165 384 -165 74 0 73 2 155 -405 41
-204 79 -394 85 -422 l10 -53 155 0 154 0 -5 23 c-2 12 -16 105 -30 207 -14
102 -28 197 -31 211 -5 26 -4 27 72 38 42 6 79 10 80 8 2 -2 17 -98 34 -213
16 -115 32 -224 35 -241 l6 -33 124 0 125 0 0 440 0 440 80 0 80 0 0 -440 0
-440 125 0 124 0 6 33 c3 17 19 126 35 241 17 115 32 211 34 214 4 4 147 -16
152 -21 3 -2 -50 -382 -60 -439 l-5 -28 154 0 154 0 10 53 c6 28 44 218 85
422 82 407 81 405 155 405 134 0 286 66 386 167 270 272 194 727 -149 893
-208 101 -433 71 -619 -84 -100 -82 -117 -78 -201 48 -107 160 -252 243 -441
251 -49 2 -108 0 -130 -4z"/>
<path d="M660 2866 c-83 -18 -149 -54 -211 -116 -87 -86 -129 -185 -129 -304
0 -209 148 -423 365 -525 156 -74 338 -68 494 14 36 19 77 35 92 35 18 0 350
-230 1154 -800 620 -441 1140 -807 1156 -815 37 -20 93 -19 135 1 99 47 111
190 23 257 -29 21 -2189 1407 -2302 1476 -54 33 -59 48 -51 159 12 181 -39
317 -165 442 -154 152 -366 219 -561 176z"/>
<path d="M4192 2860 c-113 -30 -206 -84 -293 -170 -127 -126 -177 -260 -164
-447 6 -101 6 -103 -19 -125 -13 -13 -246 -164 -516 -337 l-491 -315 106 -68
106 -69 451 321 c304 216 458 320 475 320 14 0 61 -18 104 -39 100 -50 170
-65 284 -58 106 6 200 37 284 94 374 253 370 741 -7 883 -84 32 -224 36 -320
10z"/>
<path d="M1809 2400 l15 -80 736 0 736 0 15 80 16 80 -767 0 -767 0 16 -80z"/>
<path d="M1781 872 c-228 -147 -423 -279 -434 -294 -29 -38 -33 -114 -9 -158
37 -68 135 -99 203 -65 16 9 107 71 202 139 95 67 282 200 417 296 135 95 249
176 253 180 5 4 -29 33 -75 65 -46 32 -96 68 -113 81 l-30 22 -414 -266z"/>
</g>
</svg>
