<svg width="34" height="34" viewBox="0 0 34 34" fill="none" xmlns="http://www.w3.org/2000/svg">
    <path fill-rule="evenodd" clip-rule="evenodd" d="M11.45 12.502 11 8h-1v4.5a3.5 3.5 0 1 0 7 0V8h-1l-.45 4.502a.553.553 0 0 1-1.1 0L14 8h-1l-.45 4.502a.553.553 0 0 1-1.1 0zm3.106 6.496a1.057 1.057 0 0 0-2.111 0l-.362 6.504a1.419 1.419 0 1 0 2.834 0L14.556 19zM22.5 20c.563 0 1.031.435 1.071.997l.322 4.507a1.397 1.397 0 1 1-2.786 0l.322-4.507c.04-.562.508-.997 1.071-.997zm1.5-2V8a4 4 0 0 0-4 4v6h4z" fill="#FF6F6F"/>
</svg>
