<?xml version="1.0" standalone="no"?>
<!DOCTYPE svg PUBLIC "-//W3C//DTD SVG 20010904//EN"
 "http://www.w3.org/TR/2001/REC-SVG-20010904/DTD/svg10.dtd">
<svg version="1.0" xmlns="http://www.w3.org/2000/svg"
 width="512.000000pt" height="512.000000pt" viewBox="0 0 512.000000 512.000000"
 preserveAspectRatio="xMidYMid meet">

<g transform="translate(0.000000,512.000000) scale(0.100000,-0.100000)"
fill="#000000" stroke="none">
<path d="M2440 5114 c-351 -43 -606 -161 -853 -394 l-95 -90 -52 10 c-117 22
-342 9 -492 -30 -82 -21 -223 -80 -303 -126 -586 -343 -808 -1064 -513 -1670
107 -220 293 -422 495 -538 l72 -41 1 -905 c0 -995 -1 -979 61 -1087 60 -105
170 -191 284 -224 42 -12 280 -14 1520 -14 1403 0 1472 1 1523 18 119 42 212
118 271 220 62 108 61 92 61 1087 l0 905 73 42 c647 376 823 1250 375 1855
-244 330 -615 518 -1019 518 -64 0 -140 -4 -169 -10 l-52 -10 -95 90 c-212
200 -457 328 -720 375 -89 16 -308 27 -373 19z m361 -255 c394 -78 732 -380
862 -772 31 -90 57 -230 57 -302 0 -73 16 -120 51 -149 61 -52 156 -20 178 59
11 42 -2 210 -25 320 -21 102 -66 229 -115 328 l-39 77 86 0 c228 0 475 -93
661 -249 145 -121 282 -336 333 -521 129 -475 -93 -977 -535 -1207 -133 -69
-120 8 -123 -684 l-2 -599 -1628 2 -1627 3 -5 596 c-6 689 8 613 -124 682
-443 230 -665 731 -536 1207 51 185 188 400 333 521 186 156 433 249 661 249
l86 0 -39 -77 c-49 -99 -94 -226 -115 -328 -23 -110 -36 -278 -25 -320 22 -79
117 -111 178 -59 35 29 51 76 51 149 0 72 26 212 57 302 90 271 285 509 535
651 235 134 523 178 809 121z m1387 -4187 c-3 -254 -3 -258 -29 -307 -32 -62
-93 -110 -159 -124 -72 -15 -2808 -15 -2880 0 -66 14 -127 62 -159 124 -26 49
-26 53 -29 307 l-3 258 1631 0 1631 0 -3 -258z"/>
<path d="M1211 2764 c-17 -14 -34 -40 -39 -58 -21 -73 23 -236 107 -404 89
-176 246 -399 303 -428 42 -22 94 -10 130 28 41 44 39 100 -7 164 -199 277
-290 456 -310 608 -14 103 -112 151 -184 90z"/>
<path d="M2485 2757 c-24 -24 -35 -46 -40 -78 -3 -24 -5 -200 -3 -391 3 -333
4 -348 24 -375 11 -15 38 -34 60 -42 34 -12 44 -11 76 2 73 31 73 29 76 417 2
190 0 365 -3 389 -10 64 -58 111 -115 111 -34 0 -48 -6 -75 -33z"/>
<path d="M3765 2757 c-25 -25 -35 -45 -40 -83 -20 -152 -111 -331 -310 -608
-46 -64 -48 -120 -7 -164 36 -38 88 -50 130 -28 57 29 214 252 303 428 84 168
128 331 107 404 -13 48 -61 84 -110 84 -32 0 -47 -7 -73 -33z"/>
</g>
</svg>
